<svg 
 xmlns="http://www.w3.org/2000/svg"
 xmlns:xlink="http://www.w3.org/1999/xlink"
 width="921.5px" height="590.5px">
<path fill-rule="evenodd"  stroke="rgb(242, 233, 228)" stroke-width="1px" stroke-linecap="butt" stroke-linejoin="miter" fill="rgb(242, 233, 228)"
 d="M183.500,288.500 C183.500,288.500 360.500,124.0 427.500,103.500 L435.500,79.500 L453.500,87.499 C453.500,87.499 538.499,41.0 568.499,41.500 L585.499,5.499 L580.500,27.500 C580.500,27.500 590.562,24.348 590.500,5.499 C590.500,5.499 593.237,0.711 602.500,4.499 C611.762,9.711 618.500,27.500 618.500,27.500 C618.500,27.500 789.222,-31.64 752.499,110.500 C752.499,110.500 733.975,196.563 613.499,251.500 C602.972,256.300 604.686,260.44 600.500,309.500 C596.313,358.955 603.425,411.922 565.499,516.500 C548.305,563.913 538.499,585.500 538.499,585.500 C538.499,585.500 561.233,429.514 559.499,286.500 L508.499,301.499 C508.499,301.499 509.364,324.372 479.499,345.499 C467.782,353.789 465.838,363.797 466.500,322.499 C466.500,322.499 395.719,339.422 385.499,352.499 C375.280,365.577 385.73,403.321 276.499,571.500 C276.499,571.500 319.927,457.658 344.499,368.500 C344.499,368.500 312.538,358.756 200.499,460.499 C136.885,520.56 115.21,534.62 100.499,543.499 C100.499,543.499 386.720,178.752 404.499,142.499 C404.499,142.499 244.638,227.351 183.500,288.500 ZM524.500,247.500 L563.500,230.500 C563.500,230.500 581.47,150.178 578.499,143.499 C575.952,136.821 575.499,136.499 575.499,136.499 L524.500,247.500 ZM466.500,274.499 C466.500,274.499 456.282,146.441 452.499,137.500 C448.717,128.558 448.500,128.499 448.500,128.499 C448.500,128.499 419.899,283.164 402.499,307.499 C402.499,307.499 461.542,282.763 466.500,274.499 ZM397.500,227.500 C397.500,227.500 380.468,303.427 367.500,313.500 C354.531,323.572 314.499,342.499 314.499,342.499 C314.499,342.499 391.716,241.547 397.500,227.500 ZM468.499,112.499 C468.499,112.499 553.657,71.458 561.500,71.500 C569.342,71.541 490.499,258.500 490.499,258.500 C490.499,258.500 489.154,167.864 468.499,112.499 ZM620.500,55.500 C620.500,55.500 618.130,160.108 611.500,193.500 C611.500,193.500 689.289,156.858 704.499,98.499 C719.710,40.141 675.855,40.626 620.500,55.500 ZM87.500,325.499 C87.500,325.499 56.513,362.410 34.499,371.500 C12.486,380.589 8.906,387.57 4.499,392.500 C0.93,397.942 -3.967,365.289 37.500,307.499 C45.534,296.303 47.72,311.175 52.499,302.500 C57.927,293.824 15.361,253.617 10.500,234.500 C8.355,226.65 20.377,192.155 37.500,202.500 C54.622,212.844 75.329,237.7 81.499,255.500 C81.499,255.500 104.501,245.220 115.500,193.500 C118.239,180.617 182.327,149.164 144.500,240.500 L118.500,287.499 C118.500,287.499 114.967,289.628 117.500,294.499 C120.720,300.696 131.127,310.154 142.499,312.499 C152.113,314.483 153.447,320.647 166.500,336.499 C169.463,340.99 176.500,337.500 176.500,337.500 C176.500,337.500 165.899,366.601 111.499,345.499 C111.499,345.499 94.935,337.894 87.500,325.499 ZM856.499,310.500 C856.499,310.500 912.740,272.455 919.500,250.499 C919.500,250.499 918.352,232.155 909.500,222.499 C909.500,222.499 875.889,228.85 832.500,265.500 L829.499,269.499 L814.500,221.499 C814.500,221.499 786.674,187.91 775.500,235.499 C775.500,235.499 780.669,269.175 791.499,281.499 L796.500,283.499 C796.500,283.499 803.758,286.480 798.499,288.500 C793.241,290.519 753.198,321.164 750.499,326.500 C747.801,331.835 726.246,372.63 720.499,375.500 C714.753,378.936 738.851,368.805 742.499,368.500 C746.148,368.194 733.494,383.321 729.500,387.499 C712.602,405.176 695.499,411.499 695.499,411.499 C695.499,411.499 754.736,389.942 823.500,332.499 C823.500,332.499 864.77,387.680 895.499,384.499 L898.499,382.500 C898.499,382.500 892.534,373.172 891.500,368.500 C891.500,368.500 894.148,366.104 899.500,367.499 C899.500,367.499 890.504,350.634 856.499,310.500 Z"/>
</svg>