<svg xmlns="http://www.w3.org/2000/svg"
     viewBox="0 0 68 68">
  <g data-name="Icon 7">
    <rect width="9.3"
          height="2"
          x="29.35"
          y="36.38"
          fill="#13e8ab" />
    <rect width="2"
          height="2"
          x="27.35"
          y="36.38" />
    <rect width="2"
          height="2"
          x="38.65"
          y="36.38" />
    <path fill="#F2E9E4"
          d="M40.7153,23.1328H27.2847a1,1,0,0,0-1,1v5.2183a1,1,0,0,0,1,1H27.35V57.54a6.65,6.65,0,0,0,13.3,0V30.3379c.0228.0015.0421.0132.0653.0132a1,1,0,0,0,1-1V24.1328A1,1,0,0,0,40.7153,23.1328ZM38.65,29.35V57.54a4.65,4.65,0,0,1-9.3,0V30.3511h4.9664a1,1,0,0,0,0-2h-5.961L28.35,28.35l-.0055.0011h-.06V25.1328H39.7153v3.2265A.1838.1838,0,0,0,39.65,28.35,1.0029,1.0029,0,0,0,38.65,29.35Z" />
    <path fill="#F2E9E4"
          d="M57.041,27.7266c-.0581-.0147-5.8535-1.5293-7.9883-6.212-1.1865-2.603,2.0923-7.145,3.4556-8.6752a1,1,0,0,0-1.127-1.59c-2.124.876-8.2983,2.8657-11.3413,1.5777-2.9453-1.2461-4.6494-7.0494-5.0576-9.18l-.0043-.0106a.9811.9811,0,0,0-.0942-.2312,1.032,1.032,0,0,0-.0559-.13,1.0126,1.0126,0,0,0-.0772-.0779,1,1,0,0,0-.1932-.1919c-.0216-.0144-.05-.0183-.0727-.0311a.9828.9828,0,0,0-.2879-.1175l-.01-.0039a.942.942,0,0,0-.1915.0018.9526.9526,0,0,0-.1835-.0018l-.0091.0037a.9823.9823,0,0,0-.27.11c-.0291.0156-.0643.0209-.0915.0391a1.0081,1.0081,0,0,0-.144.143.9965.9965,0,0,0-.1262.1271,1.0516,1.0516,0,0,0-.047.1095.9833.9833,0,0,0-.1027.2511l-.0043.0106c-.4082,2.1308-2.1123,7.9341-5.0576,9.18-3.0357,1.2837-9.2159-.7037-11.3413-1.5777A1,1,0,0,0,15.4922,12.84c1.3642,1.5279,4.645,6.0645,3.4546,8.6753-2.1343,4.6822-7.93,6.1968-7.9878,6.2115a1,1,0,0,0,.3877,1.9594c.0854-.0127,8.5527-1.1733,10.3061,4.0489a1,1,0,0,0,1.8965-.6368c-1.2456-3.7094-4.7207-4.9951-7.6919-5.3872a12.617,12.617,0,0,0,4.9092-5.3662c1.1987-2.6294-.3091-5.9018-1.7729-8.1714,2.8486.83,7.0053,1.6548,9.7456.4952C31.4055,13.54,33.066,10.1832,34,7.5331c.934,2.65,2.5945,6.0072,5.2607,7.1354,2.7417,1.16,6.897.3344,9.7456-.4952-1.4638,2.27-2.9716,5.542-1.7734,8.1709a12.6174,12.6174,0,0,0,4.91,5.3667c-2.9717.3921-6.4468,1.6778-7.6924,5.3872a1,1,0,1,0,1.8965.6368c1.7519-5.2237,10.2192-4.0616,10.3061-4.0489a1,1,0,0,0,.3877-1.9594Z" />
  </g>
</svg>