<?xml version="1.0" encoding="utf-8"?>
<!-- Generator: Adobe Illustrator 24.2.1, SVG Export Plug-In . SVG Version: 6.00 Build 0)  -->
<svg version="1.1" id="Layer_1" xmlns="http://www.w3.org/2000/svg" xmlns:xlink="http://www.w3.org/1999/xlink" x="0px" y="0px"
	 viewBox="0 0 32 32" style="enable-background:new 0 0 32 32;" xml:space="preserve">
<style type="text/css">
	.st0{fill:#C5E7F0;}
	.st1{fill:#FFFFFF;}
	.st2{fill:#B9E5EF;}
	.st3{fill:#9ECBDB;}
	.st4{fill:none;stroke:#586597;stroke-linejoin:round;}
	.st5{fill:none;stroke:#586597;stroke-linecap:round;stroke-linejoin:round;}
	.st6{fill:none;stroke:#586597;}
	.st7{fill:#586597;}
	.st8{fill:none;stroke:#000000;stroke-linecap:round;stroke-linejoin:round;}
	.st9{fill:none;stroke:#5E2BFF;stroke-linecap:round;stroke-linejoin:round;}
</style>
<g transform="translate(1978.25 506.638)">
	<path class="st0" d="M-1970.5-503.6h15l4.5,5.5v18h-19.5V-503.6z"/>
	<path class="st1" d="M-1973.3-501.1h15l4.5,5.5v18h-19.5V-501.1z"/>
	<path class="st2" d="M-1958.5-501.1l4.5,5.5h-4.5V-501.1z"/>
	<path class="st3" d="M-1956-503.6v5.5h4.5L-1956-503.6z"/>
	<g transform="translate(-4998.75 -2335.5)">
		<path class="st4" d="M3028,1833.1v-1.3h15l4.5,5.5v18h-1.3"/>
		<path class="st5" d="M3040.3,1834.6l0,5.2h4.5"/>
		<path class="st6" d="M3042.8,1834.9v-2.8 M3044.8,1837.4h3"/>
		<path class="st7" d="M3026,1850.9c0-0.3-0.2-0.5-0.5-0.5s-0.5,0.2-0.5,0.5s0.2,0.5,0.5,0.5S3026,1851.1,3026,1850.9z"/>
		<path class="st5" d="M3025.5,1852.9v5h19.5v-18l-4.5-5.5h-15v14.5"/>
		<g transform="translate(130.5 -4.027)">
			<path class="st8" d="M2898.8,1854.4h5.2 M2907.5,1854.4l3.2,0"/>
			<path d="M2906.3,1854.4c0,0.3-0.2,0.5-0.5,0.5s-0.5-0.2-0.5-0.5c0-0.3,0.2-0.5,0.5-0.5S2906.3,1854.1,2906.3,1854.4z"/>
		</g>
		<g transform="matrix(-1 0 0 1 5940.5 -11.026)">
			<path class="st8" d="M2899.3,1854.4l5.2,0 M2908,1854.4l3.2,0"/>
			<path d="M2906.7,1854.4c0,0.3-0.2,0.5-0.5,0.5s-0.5-0.2-0.5-0.5c0-0.3,0.2-0.5,0.5-0.5S2906.7,1854.1,2906.7,1854.4z"/>
		</g>
		<g transform="matrix(1 0 0 -1 0 3700.724)">
			<g transform="matrix(-1 0 0 1 5940.75 -9.776)">
				<path class="st8" d="M2901.3,1856.6l2,0 M2905,1856.6l4.7,0"/>
				<path d="M2912,1856.6c0,0.3-0.2,0.5-0.5,0.5s-0.5-0.2-0.5-0.5s0.2-0.5,0.5-0.5S2912,1856.4,2912,1856.6z M2900,1856.6
					c0,0.3-0.2,0.5-0.5,0.5s-0.5-0.2-0.5-0.5s0.2-0.5,0.5-0.5S2900,1856.4,2900,1856.6z"/>
			</g>
			<path class="st8" d="M3029.3,1853.9l4,0 M3038.3,1853.9l3,0 M3036.5,1853.9l-1.5,0"/>
		</g>
		<path class="st9" d="M3035.8,1839.9l-3.7,0 M3030.2,1839.9h-1"/>
	</g>
</g>
</svg>
