<svg xmlns="http://www.w3.org/2000/svg"
     id="Layer_1"
     x="0"
     y="0"
     enable-background="new 0 0 32 32"
     version="1.1"
     viewBox="0 0 32 32"
     xml:space="preserve">
  <path id="path5"
        fill="#f2e9e4"
        stroke="none"
        d="m 10.524144,6.0009779 c -0.8270002,0 -1.5000002,0.673 -1.5000002,1.5 l 0,0.027344 -5.75,2.6054681 c -0.33,0.149 -0.5829375,0.417813 -0.7109375,0.757813 -0.127,0.339 -0.1148437,0.710063 0.035156,1.039063 L 8.6100811,25.20215 c 0.226,0.5 0.7144687,0.794922 1.2304688,0.794922 0.096,0 0.1911091,-0.03564 0.2871091,-0.05664 0.128,0.035 0.259438,0.05859 0.398438,0.05859 l 12,0 c 0.074,0 0.143843,-0.01048 0.214843,-0.02148 0.026,0.002 0.05308,0.0078 0.08008,0.0078 0.52,0 0.999797,-0.293812 1.216797,-0.757813 l 5.435547,-10.853515 c 0.06,-0.122 0.06653,-0.265531 0.01953,-0.394531 l -1.244141,-3.416005 c -0.043,-0.117 -0.126328,-0.216437 -0.236328,-0.273438 L 21.7468,7.0146498 20.879612,6.1474623 c -0.046,-0.046 -0.101109,-0.082422 -0.162109,-0.1074219 -0.061,-0.025 -0.126359,-0.039063 -0.193359,-0.039063 l -10,0 z m 0.002,1 9.5,0 0,2.5 c 0,0.276 0.224,0.5000001 0.5,0.5000001 l 2.5,0 0,14.5 c 0,0.062 -0.01611,0.120781 -0.03711,0.175781 -0.064,0.156 -0.209531,0.274735 -0.394531,0.302735 -0.023,0.003 -0.04441,0.01448 -0.06641,0.02148 -10e-4,0 -0.0019,0.002 -0.0039,0.002 l -12,0 c -0.059,0 -0.114969,-0.01616 -0.167969,-0.03516 -0.002,-0.001 -0.0019,-0.0029 -0.0039,-0.0039 -0.093,-0.035 -0.166656,-0.09692 -0.222656,-0.169922 -0.008,-0.011 -0.01644,-0.0222 -0.02344,-0.0332 -0.049,-0.076 -0.08203,-0.162813 -0.08203,-0.257813 l 0,-16.6503906 0,-0.3515625 0.002,0 c 0,-0.275 0.224,-0.5 0.5,-0.5 z m 10.498,0.7070312 1.292968,1.2929688 -1.292968,0 0,-1.2929688 z M 9.0260969,8.627931 l 0,15.068359 -5.515625,-12.177734 c -0.04,-0.087 -0.042766,-0.185437 -0.00977,-0.273437 0.033,-0.09 0.1005,-0.159219 0.1875,-0.199219 l 5.337895,-2.417969 z m 14.9628901,0.6875 3.015625,1.578125 -0.941406,2.017578 c -0.117,0.25 -0.0088,0.548063 0.242188,0.664063 l 1.982421,0.923828 -4.263671,8.523437 0,-13.5214841 c 0,-0.065 -0.01316,-0.1275469 -0.03516,-0.1855469 z m 3.667969,2.544922 0.544922,1.496094 -1.019531,-0.47461 0.474609,-1.021484 z" />
</svg>